<?xml version="1.0" encoding="UTF-8"?>
<svg fill="#5576CCFF" xmlns="http://www.w3.org/2000/svg" id="Layer_1" data-name="Layer 1" viewBox="0 0 512 512" width="512" height="512"><path d="M188.962,240H168V217.2a6.123,6.123,0,0,0-5.94-6.2H139.3a6.434,6.434,0,0,0-6.3,6.2V240H111.361A6.465,6.465,0,0,0,105,246.17V267.9a6.405,6.405,0,0,0,6.361,6.1H133v20.8a6.434,6.434,0,0,0,6.3,6.2H162.06a6.123,6.123,0,0,0,5.94-6.2V274h20.962A6.12,6.12,0,0,0,195,267.9V246.17A6.181,6.181,0,0,0,188.962,240ZM183,262H162.06a5.967,5.967,0,0,0-6.06,5.9V289H145V267.9a5.667,5.667,0,0,0-5.7-5.9H117V252h22.3a5.61,5.61,0,0,0,5.7-5.83V223h11v23.17a5.909,5.909,0,0,0,6.06,5.83H183Z"/><path d="M111.6,85.4C78.311,96.671,54.69,127.049,46.8,168.746a6,6,0,0,0,4.78,7.011,6.067,6.067,0,0,0,1.123.1,6,6,0,0,0,5.888-4.885c7.062-37.32,27.787-64.367,56.86-74.207A6,6,0,1,0,111.6,85.4Z"/><path d="M141.358,80.627c-2.236,0-4.485.076-6.684.225a6,6,0,0,0,.4,11.986c.136,0,.273,0,.411-.013,1.931-.131,3.907-.2,5.873-.2a6,6,0,0,0,0-12Z"/><path d="M486,282H453l-4.849-9c13.885-36.17,17.819-73.561,11.007-108.736l-.009-.044c-13.023-64.7-59.6-106.506-118.664-106.506-31.546,0-65.781,12.4-99.242,35.912-33.933-24.551-67.519-36.994-99.882-36.994-59.392,0-105.764,42.258-118.137,107.644C4.989,259.519,62.941,385.99,233.532,453.849a20.075,20.075,0,0,0,7.673,1.516,19.842,19.842,0,0,0,7.638-1.515c78.37-31.826,139.135-78.444,175.727-134.813a252.834,252.834,0,0,0,17.656-31.99l1.916,3.56A6.241,6.241,0,0,0,449.42,294H486a6,6,0,0,0,0-12Zm-45.51-23.23-17.811-33.082a6.122,6.122,0,0,0-5.155-3.268,5.936,5.936,0,0,0-5.279,2.87l-44.219,74.317L325.22,196.8a5.962,5.962,0,0,0-10.721-.646L282.552,251H228.046a77.978,77.978,0,1,0-.127,12H286a6.077,6.077,0,0,0,5.182-3.059l27.6-47.358,42.757,102.651a5.987,5.987,0,0,0,5.114,3.668c.142.011.285.01.427.01a6,6,0,0,0,5.155-2.935l44.918-75.526,17.841,33.155a237.636,237.636,0,0,1-20.489,38.9c-35.248,54.3-94.094,99.331-170.233,130.251a8.04,8.04,0,0,1-6.166,0l-.1-.039C73.762,377.392,17.7,256.932,35.01,166.515c5.582-29.5,18.544-54.265,37.482-71.606,18.778-17.194,42.591-26.282,68.866-26.282,30.842,0,63.221,12.519,96.238,37.21a6,6,0,0,0,7.123.047c32.53-23.666,65.644-36.175,95.763-36.175,26.207,0,50.052,9.05,68.956,26.17,18.966,17.175,32.085,41.615,37.94,70.682C453.137,196.316,450.659,227.841,440.49,258.77ZM216.236,256a66.075,66.075,0,1,1-66.074-66.053A66.139,66.139,0,0,1,216.236,256Z"/></svg>
