<svg fill="#5576CCFF" height="481pt" viewBox="-60 0 481 481.52395" width="481pt" xmlns="http://www.w3.org/2000/svg"><path d="m356.261719 146.523438h-4.3125c.21875-.359376.445312-.710938.648437-1.078126 5.523438-9.992187 5.019532-22.230468-1.308594-31.730468 3.308594-8.039063 1.65625-17.261719-4.234374-23.648438-5.886719-6.390625-14.945313-8.785156-23.222657-6.144531 8.167969-13.570313 8.863281-30.363281 1.851563-44.5625-7.015625-14.199219-20.773438-23.851563-36.515625-25.613281-6.328125-12.335938-21.40625-17.277344-33.804688-11.078125-12.402343 6.199219-17.5 21.222656-11.433593 33.6875-.910157 1.539062-1.726563 3.128906-2.449219 4.761719-2.332031-.734376-4.738281-1.222657-7.171875-1.457032-5.933594-8.3125-15.210938-13.609375-25.386719-14.492187-10.175781-.886719-20.230469 2.730469-27.511719 9.890625-1.460937-.253906-2.945312-.382813-4.429687-.382813-10.554688-.011719-20 6.546875-23.675781 16.441407-.464844-.019532-.925782-.050782-1.394532-.050782-12.554687-.003906-23.703125 8.039063-27.65625 19.957032-3.957031 11.917968.171875 25.027343 10.238282 32.53125.140624 1.605468.390624 3.199218.75 4.769531-18.574219 2.636719-31.6875 19.554687-29.613282 38.199219h-.050781c-1.722656 0-3.363281.738281-4.5 2.03125-1.140625 1.292968-1.667969 3.011718-1.453125 4.71875l4.664062 37.070312c-1.550781-.089844-3.101562-.148438-4.675781-.148438-7.183593 0-14.332031.984376-21.25 2.925782l-11.457031-40.253906c-.574219-2.019532-2.164062-3.589844-4.1875-4.144532l-29.929688-8.195312c-3.195312-.875-6.496093 1.007812-7.371093 4.203125-.875 3.195312 1.007812 6.496093 4.203125 7.371093l26.667968 7.300782 10.769532 37.835937c-27.058594 12.257813-44.972656 38.636719-46.398438 68.304688-11.871094 2.480469-20.382812 12.9375-20.398437 25.066406 0 14.355469 11.085937 25.601563 25.242187 25.601563h4.457032l6.34375 144.589843c.488281 11.601563 10.046874 20.746094 21.65625 20.722657h83.292968c11.609375.023437 21.167969-9.125 21.65625-20.726563l.148438-3.378906h155.601562c3.027344 0 5.578125-2.25 5.953125-5.25l37.601563-298.898438c.214844-1.707031-.316406-3.425781-1.453125-4.71875-1.140625-1.289062-2.777344-2.027343-4.5-2.027343zm-20.640625-50.375c5 2.777343 6.8125 9.078124 4.046875 14.089843-.113281.210938-.242188.421875-.378907.621094-1.609374 2.28125-1.433593 5.375.429688 7.457031 3.664062 4.113282 5.308594 9.644532 4.488281 15.09375-.820312 5.449219-4.019531 10.253906-8.730469 13.105469h-61.847656c8.269532-3.007813 14.152344-10.398437 15.234375-19.128906 4.085938-5.769531 11.105469-8.695313 18.078125-7.535157 1.988282.324219 4.007813-.367187 5.375-1.847656 1.449219-1.566406 3.167969-2.863281 5.070313-3.828125 2.4375-1.25 3.722656-3.996093 3.117187-6.671875-.90625-3.980468.613282-8.125 3.878906-10.578125 3.265626-2.453125 7.667969-2.753906 11.238282-.777343zm-98.699219 349.269531v-286.898438h50.269531l-18.507812 286.898438zm-43.765625 0-8.496094-131.671875c9.492188-4.484375 15.277344-14.3125 14.605469-24.785156-.675781-10.472657-7.679687-19.472657-17.667969-22.699219l-6.796875-105.417969c2.632813.84375 5.402344 1.207031 8.167969 1.070312 5.382812 5.832032 13.15625 8.855469 21.066406 8.191407 7.910156-.664063 15.070313-4.9375 19.410156-11.582031h1.476563v286.898437zm17.828125-311.320313c4 3.523438 5.605469 9.042969 4.121094 14.160156-1.488281 5.121094-5.796875 8.921876-11.058594 9.757813-5.265625.839844-10.542969-1.441406-13.539063-5.847656-1.378906-2.03125-3.851562-3.015625-6.25-2.492188-4.441406.964844-9.03125-.816406-11.660156-4.523437-2.632812-3.707032-2.796875-8.628906-.417968-12.503906 2.375-3.875 6.835937-5.957032 11.332031-5.292969 3.269531.488281 6.324219-1.761719 6.820312-5.035157.566407-3.757812 3.238281-6.863281 6.871094-7.984374 3.632813-1.125 7.585937-.066407 10.179687 2.714843 2.589844 2.785157 3.355469 6.804688 1.976563 10.347657-.925781 2.351562-.277344 5.03125 1.621094 6.699218zm98.136719-35.039062c-.625 2.160156-.917969 4.398437-.871094 6.648437-.863281.605469-1.691406 1.257813-2.484375 1.953125-6.40625-.390625-12.769531 1.253906-18.183594 4.699219.699219-1.992187 1.152344-4.0625 1.34375-6.164063 7.195313-.761718 14.113281-3.207031 20.191407-7.136718zm-34.160156 18.972656c1.351562 1.910156 2.078124 4.191406 2.074218 6.527344 0 5.71875-4.25 10.546875-9.921875 11.269531-5.675781.722656-11-2.890625-12.425781-8.425781-.824219-3.207032-4.082031-5.144532-7.289062-4.328125-3.6875.945312-7.589844-.304688-10.042969-3.21875-2.449219-2.910157-3.015625-6.96875-1.457031-10.441407 1.5625-3.472656 4.976562-5.742187 8.78125-5.839843 2.523437-.066407 4.738281-1.703125 5.539062-4.101563 1.6875-5.058594 6.148438-8.683594 11.445312-9.308594 5.292969-.625 10.476563 1.867188 13.292969 6.394532 2.820313 4.527344 2.769531 10.277344-.128906 14.753906-1.332031 2.058594-1.28125 4.71875.132813 6.71875zm-157.550782 24.847656c.015625-12.65625 10.273438-22.910156 22.929688-22.925781.898437 0 1.796875.054687 2.6875.164063 2.230468.285156 4.433594-.699219 5.707031-2.554688 1.277344-1.851562 1.40625-4.265625.335937-6.246094-.386718-.726562-.734374-1.472656-1.042968-2.238281 1.285156.175781 2.582031.265625 3.878906.269531 3.316406 0 6-2.6875 6-6 0-3.316406-2.683594-6-6-6-7.347656-.003906-13.878906-4.691406-16.230469-11.65625-2.351562-6.960937-.003906-14.652344 5.839844-19.109375 5.839844-4.460937 13.875-4.699219 19.972656-.59375 1.777344 1.214844 4.066407 1.386719 6.003907.449219s3.222656-2.84375 3.371093-4.988281c.148438-2.148438-.867187-4.210938-2.65625-5.40625-1.023437-.683594-2.089843-1.304688-3.195312-1.855469 2.945312-6.09375 9.996093-9.003906 16.382812-6.761719 2.402344.851563 5.074219.097657 6.679688-1.878906 4.746093-5.875 12.082031-9.035156 19.613281-8.445313 7.527344.589844 14.285156 4.851563 18.058594 11.394532 1.085937 1.859375 3.074218 3 5.226562 3 3.875-.003906 7.691406.980468 11.082032 2.859375 1.605468.894531 3.535156 1.003906 5.234374.292969 1.695313-.707032 2.972657-2.15625 3.464844-3.929688 1.070313-3.855469 2.804688-7.492188 5.125-10.75 1.492188-2.09375 1.480469-4.910156-.023437-6.992188-1.628907-2.25-2.503907-4.957031-2.492188-7.730468-.003906-6.558594 4.785157-12.136719 11.265625-13.132813 6.484375-.996093 12.722656 2.890625 14.6875 9.148438.769532 2.449219 3.015625 4.140625 5.582032 4.207031 18.21875.515625 32.894531 15.117188 33.503906 33.332031.609375 18.21875-13.058594 33.765625-31.203125 35.496094-3.734375-9.378906-12.609375-15.710937-22.695313-16.199219-10.082031-.484375-19.523437 4.96875-24.140625 13.945313-10.957031 2.355469-18.375 12.59375-17.195312 23.738281 1.179687 11.144531 10.578125 19.601562 21.785156 19.605469h.023437c2.707032 5.175781 7.253907 9.152343 12.746094 11.140625h-30.160156c.558594-6.742188-1.558594-13.429688-5.902344-18.621094 2.097656-11.007812-4.453125-21.824219-15.179687-25.070312-10.726563-3.246094-22.175781 2.125-26.535157 12.449218l-.011718.023438c-7.246094.59375-13.804688 4.535156-17.730469 10.65625s-4.773437 13.726562-2.285156 20.5625h-42.214844c-.191406-1.207032-.289063-2.425782-.292969-3.648438zm-5.035156 15.644532h50.246094l4.492187 69.632812c-11.230469-18.402344-29.46875-31.4375-50.519531-36.105469zm-36.855469 48.164062c.144531-.03125.292969-.050781.4375-.089844.464844-.136718.910157-.328125 1.332031-.570312 19.8125-7.007813 41.765626-4.3125 59.296876 7.277344 17.53125 11.589843 28.605468 30.734374 29.917968 51.710937h-133.785156c1.679688-26.125 18.386719-48.886719 42.800781-58.328125zm-63.257812 83.921875c.097656-7.46875 6.128906-13.503906 13.601562-13.597656h147.859375c4.933594-.121094 9.546875 2.441406 12.050782 6.699219 2.503906 4.253906 2.503906 9.535156 0 13.789062-2.503907 4.257812-7.117188 6.820312-12.050782 6.703125h-148.21875c-3.570312-.011719-6.988281-1.457031-9.480468-4.015625-2.488282-2.554688-3.84375-6.007812-3.761719-9.578125zm31.183593 59.015625h59.808594v84.554688h-56.101562zm107.476563 110.648438c-.214844 5.175781-4.484375 9.261718-9.664063 9.25h-83.296874c-5.183594.011718-9.449219-4.074219-9.664063-9.25l-.621094-14.09375h61.578125c3.3125 0 6-2.6875 6-6v-96.554688c0-3.3125-2.6875-6-6-6h-66.335937l-.941407-21.417969h115.265626zm18.332031-144.066407h3.539063l8.335937 129.210938h-17.542968zm144.109375 129.210938h-32.660156l18.507813-286.898438h50.246093zm0 0"/></svg>