<svg id="Layer_1" height="512" viewBox="0 0 512 512" width="512" xmlns="http://www.w3.org/2000/svg" xmlns:xlink="http://www.w3.org/1999/xlink" data-name="Layer 1"><linearGradient id="linear-gradient" gradientUnits="userSpaceOnUse" x1="256" x2="256" y1="467.812" y2="79.612"><stop offset=".322" stop-color="#a163f5"/><stop offset=".466" stop-color="#b074ee"/><stop offset=".752" stop-color="#d8a1dd"/><stop offset=".898" stop-color="#efbad3"/></linearGradient><linearGradient id="linear-gradient-2" x1="46.281" x2="46.281" xlink:href="#linear-gradient" y1="467.812" y2="79.612"/><linearGradient id="linear-gradient-3" x1="104.61" x2="104.61" xlink:href="#linear-gradient" y1="467.812" y2="79.612"/><linearGradient id="linear-gradient-4" x1="107.667" x2="107.667" xlink:href="#linear-gradient" y1="467.812" y2="79.612"/><linearGradient id="linear-gradient-5" x1="205.032" x2="205.032" xlink:href="#linear-gradient" y1="467.812" y2="79.612"/><linearGradient id="linear-gradient-6" x1="344" x2="344" xlink:href="#linear-gradient" y1="467.812" y2="79.612"/><linearGradient id="linear-gradient-8" x1="263.167" x2="263.167" xlink:href="#linear-gradient" y1="467.812" y2="79.612"/><linearGradient id="linear-gradient-9" x1="119.798" x2="119.798" xlink:href="#linear-gradient" y1="467.812" y2="79.612"/><linearGradient id="linear-gradient-10" x1="263.513" x2="263.513" xlink:href="#linear-gradient" y1="467.812" y2="79.612"/><linearGradient id="linear-gradient-11" x1="358" x2="358" xlink:href="#linear-gradient" y1="467.812" y2="79.612"/><path d="m76 267.5c13.183 0 19.434 4.167 26.671 8.992 7.739 5.16 16.511 11.008 33.329 11.008s25.587-5.848 33.326-11.008c7.238-4.825 13.488-8.992 26.67-8.992s19.434 4.167 26.671 8.992c7.739 5.16 16.512 11.008 33.328 11.008s25.589-5.848 33.328-11.008c7.239-4.825 13.489-8.992 26.672-8.992s19.436 4.167 26.674 8.992c7.74 5.16 16.513 11.008 33.33 11.008s25.589-5.848 33.329-11.007c7.238-4.826 13.489-8.993 26.674-8.993a6 6 0 0 0 0-12c-16.817 0-25.59 5.848-33.33 11.008-7.238 4.825-13.489 8.992-26.673 8.992s-19.435-4.167-26.674-8.992c-7.74-5.16-16.512-11.008-33.33-11.008s-25.589 5.848-33.328 11.008c-7.238 4.825-13.488 8.992-26.672 8.992s-19.434-4.167-26.672-8.992c-7.739-5.16-16.51-11.008-33.327-11.008s-25.587 5.848-33.326 11.008c-7.237 4.825-13.487 8.992-26.67 8.992s-19.434-4.167-26.671-8.992c-7.741-5.16-16.513-11.008-33.329-11.008a6 6 0 0 0 0 12z" fill="url(#linear-gradient)"/><path d="m48.693 324h-4.825a6 6 0 1 0 0 12h4.825a6 6 0 0 0 0-12z" fill="url(#linear-gradient-2)"/><path d="m137.465 324h-65.709a6 6 0 1 0 0 12h65.709a6 6 0 1 0 0-12z" fill="url(#linear-gradient-3)"/><circle cx="107.667" cy="190.667" fill="url(#linear-gradient-4)" r="12"/><path d="m205.032 165.269a21.3 21.3 0 1 0 -21.3-21.3 21.326 21.326 0 0 0 21.3 21.3zm0-30.6a9.3 9.3 0 1 1 -9.3 9.3 9.311 9.311 0 0 1 9.3-9.302z" fill="url(#linear-gradient-5)"/><path d="m344 218a15 15 0 1 0 -15-15 15.017 15.017 0 0 0 15 15zm0-18a3 3 0 1 1 -3 3 3 3 0 0 1 3-3z" fill="url(#linear-gradient-6)"/><path d="m344 167.968a15 15 0 1 0 -15-15 15.017 15.017 0 0 0 15 15zm0-18a3 3 0 1 1 -3 3 3 3 0 0 1 3-3z" fill="url(#linear-gradient-6)"/><path d="m263.167 107.667a13.167 13.167 0 1 0 -13.167-13.167 13.181 13.181 0 0 0 13.167 13.167zm0-14.334a1.167 1.167 0 1 1 -1.167 1.167 1.168 1.168 0 0 1 1.167-1.167z" fill="url(#linear-gradient-8)"/><circle cx="119.798" cy="401.561" fill="url(#linear-gradient-9)" r="8.798"/><path d="m263.513 372a19.18 19.18 0 1 0 19.179 19.179 19.2 19.2 0 0 0 -19.179-19.179zm0 26.359a7.18 7.18 0 1 1 7.179-7.18 7.188 7.188 0 0 1 -7.179 7.18z" fill="url(#linear-gradient-10)"/><circle cx="358" cy="426.333" fill="url(#linear-gradient-11)" r="11"/><path d="m487.061 304.622a42.218 42.218 0 0 0 -12.171-73.4c-21.99-102.637-113.421-176.731-218.89-176.731s-196.9 74.094-218.89 176.733a42.122 42.122 0 0 0 -12.171 73.282 31.637 31.637 0 0 0 14.13 58.4c1.4 28.912 13.544 53.118 35.347 69.9 21.213 16.333 50.147 25.194 83.677 25.194h195.814c33.53 0 62.464-8.876 83.677-25.2 21.825-16.8 33.975-40.945 35.351-69.885a31.559 31.559 0 0 0 14.126-58.288zm-231.061-238.131c98.191 0 183.524 67.853 206.089 162.525-.212 0-.421-.016-.634-.016h-410.91c-.213 0-.422.013-.634.016 22.565-94.672 107.898-162.525 206.089-162.525zm-235.5 204.509a30.041 30.041 0 0 1 30.045-30h410.91a30 30 0 1 1 0 60h-410.91a30.041 30.041 0 0 1 -30.045-30zm428.287 42c-1.362 27-39.9 60.4-61.473 76.064-15.39-40.251-40.84-63.064-58.841-76.064zm-426.787 18.461a19.553 19.553 0 0 1 18.151-19.5l264.134 1.039c3.338 2 14.961 7.4 28.4 18.793a141.039 141.039 0 0 1 18.48 19.207h-309.859a19.528 19.528 0 0 1 -19.306-19.539zm408.265 91.825c-18.824 14.489-45.941 22.714-76.358 22.714h-195.814c-30.417 0-57.534-8.225-76.358-22.714-18.753-14.435-29.273-35.259-30.644-60.286h308.964a148.387 148.387 0 0 1 18.563 37.894 5.83 5.83 0 0 0 3.744 3.661 5.936 5.936 0 0 0 1.949.267 5.821 5.821 0 0 0 3.326-.8c1.848-1.231 27.43-19.019 47.835-41.019h25.428c-1.4 24.985-11.913 45.871-30.635 60.283zm40.429-72.286h-25.435c8.728-12 15.029-25 15.518-38h.678a41.932 41.932 0 0 0 10.394-1.044 19.548 19.548 0 0 1 -1.155 39.044z" fill="url(#linear-gradient)"/></svg>