<svg height="473pt" viewBox="-101 0 473 473.99074" width="473pt" xmlns="http://www.w3.org/2000/svg" xmlns:xlink="http://www.w3.org/1999/xlink"><linearGradient id="lg1"><stop offset=".322" stop-color="#a163f5"/><stop offset=".466" stop-color="#b074ee"/><stop offset=".752" stop-color="#d8a1dd"/><stop offset=".898" stop-color="#efbad3"/></linearGradient><linearGradient id="linear0" gradientUnits="userSpaceOnUse" x1="136.4953" x2="136.4953" xlink:href="#lg1" y1="474.990745" y2="7.893745"/><linearGradient id="linear1" gradientUnits="userSpaceOnUse" x1="74.4953" x2="74.4953" xlink:href="#lg1" y1="474.990745" y2="7.893745"/><linearGradient id="linear2" gradientUnits="userSpaceOnUse" x1="94.4953" x2="94.4953" xlink:href="#lg1" y1="474.990745" y2="7.893745"/><linearGradient id="linear3" gradientUnits="userSpaceOnUse" x1="115.4953" x2="115.4953" xlink:href="#lg1" y1="474.990745" y2="7.893745"/><linearGradient id="linear4" gradientUnits="userSpaceOnUse" x1="135.5033" x2="135.5033" xlink:href="#lg1" y1="474.990745" y2="7.893745"/><linearGradient id="linear5" gradientUnits="userSpaceOnUse" x1="155.9953" x2="155.9953" xlink:href="#lg1" y1="474.990745" y2="7.893745"/><linearGradient id="linear6" gradientUnits="userSpaceOnUse" x1="177.5433" x2="177.5433" xlink:href="#lg1" y1="474.990745" y2="7.893745"/><linearGradient id="linear7" gradientUnits="userSpaceOnUse" x1="198.4953" x2="198.4953" xlink:href="#lg1" y1="474.990745" y2="7.893745"/><path d="m270.996094 154.023438c-1.140625-1.292969-2.777344-2.03125-4.5-2.03125h-4.867188c.300782-.476563.597656-.953126.871094-1.449219 5.707031-10.324219 5.164062-22.976563-1.410156-32.777344 3.488281-8.359375 1.734375-17.988281-4.472656-24.582031-6.210938-6.59375-15.71875-8.917969-24.269532-5.9375 8.679688-14.007813 9.5625-31.492188 2.339844-46.304688s-21.539062-24.882812-37.921875-26.675781c-6.460937-12.769531-22.027344-17.921875-34.832031-11.523437-12.804688 6.402343-18.027344 21.941406-11.691406 34.777343-.996094 1.675781-1.886719 3.414063-2.667969 5.199219-2.496094-.800781-5.074219-1.328125-7.683594-1.570312-6.117187-8.617188-15.710937-14.109376-26.238281-15.023438s-20.925782 2.847656-28.433594 10.28125c-12.453125-2.253906-24.722656 4.765625-29.09375 16.640625-.523438-.023437-1.046875-.054687-1.574219-.054687-12.945312-.007813-24.429687 8.296874-28.488281 20.589843s.234375 25.800781 10.636719 33.503907c.148437 1.769531.425781 3.523437.835937 5.253906-19.351562 2.613281-33.03125 20.261718-30.738281 39.652344h-.300781c-1.722656 0-3.363282.738281-4.5 2.03125-1.140625 1.289062-1.667969 3.007812-1.453125 4.714843l39 310c.375 3 2.929687 5.253907 5.953125 5.253907h182c3.023437 0 5.574218-2.253907 5.953125-5.253907l39-310c.214843-1.707031-.316407-3.425781-1.453125-4.714843zm-25.800782-54.691407c5.296876 2.9375 7.214844 9.609375 4.285157 14.910157-.121094.226562-.253907.445312-.398438.660156-1.617187 2.28125-1.441406 5.378906.421875 7.464844 3.855469 4.324218 5.582032 10.144531 4.707032 15.871093-.871094 5.726563-4.25 10.769531-9.214844 13.753907h-65.601563c9.164063-2.746094 15.832031-10.65625 16.980469-20.152344 4.28125-6.078125 11.667969-9.171875 19-7.953125 1.988281.328125 4.007812-.367188 5.371094-1.847657 1.523437-1.640624 3.324218-3 5.320312-4.019531 2.441406-1.25 3.726563-3.992187 3.117188-6.667969-.957032-4.214843.652344-8.601562 4.109375-11.199218s8.121093-2.917969 11.902343-.820313zm-102.699218 362.660157v-103h40.625l-7.21875 103zm-45.40625 0-7.21875-103h40.625v103zm-41.59375-115v-58h162v58zm60.46875-208.277344c4.222656 3.710937 5.921875 9.527344 4.359375 14.925781-1.5625 5.402344-6.109375 9.410156-11.660157 10.289063-5.550781.878906-11.113281-1.527344-14.269531-6.179688-1.375-2.03125-3.851562-3.019531-6.246093-2.492188-4.699219 1.027344-9.5625-.847656-12.347657-4.773437-2.789062-3.921875-2.964843-9.128906-.445312-13.230469 2.519531-4.097656 7.242187-6.296875 12.003906-5.585937 3.273437.492187 6.324219-1.761719 6.820313-5.035157.59375-3.992187 3.421874-7.289062 7.277343-8.484374 3.855469-1.195313 8.054688-.074219 10.800781 2.882812 2.75 2.957031 3.558594 7.230469 2.082032 10.984375-.921875 2.355469-.273438 5.03125 1.625 6.699219zm-38.011719 27.5625c2.859375.96875 5.882813 1.386718 8.898437 1.226562 5.542969 6.046875 13.574219 9.1875 21.746094 8.496094 8.175782-.6875 15.570313-5.121094 20.023438-12.007812h1.875v113h-46.546875zm64.542969 110.714844v-113h52.664062l-6.117187 113zm75.472656-174.953126c-.761719 2.425782-1.117188 4.964844-1.046875 7.511719-.949219.660157-1.859375 1.375-2.726563 2.140625-6.851562-.441406-13.660156 1.386719-19.371093 5.199219.867187-2.292969 1.414062-4.699219 1.617187-7.144531 7.695313-.785156 15.085938-3.429688 21.527344-7.707032zm-35.609375 20.050782c1.429687 2.015625 2.199219 4.429687 2.191406 6.902344 0 6.039062-4.496093 11.136718-10.488281 11.898437s-11.617188-3.050781-13.128906-8.898437c-.816406-3.207032-4.078125-5.144532-7.285156-4.328126-3.910157 1.003907-8.046876-.320312-10.648438-3.40625-2.597656-3.089843-3.199219-7.390624-1.542969-11.074218 1.65625-3.679688 5.273438-6.085938 9.308594-6.1875 2.523437-.066406 4.738281-1.703125 5.539063-4.097656 1.773437-5.335938 6.472656-9.160157 12.054687-9.820313 5.585937-.660156 11.046875 1.96875 14.015625 6.742187 2.96875 4.773438 2.910156 10.832032-.148438 15.546876-1.332031 2.058593-1.28125 4.722656.132813 6.722656zm-163.808594 25.902344c.015625-13.25 10.75-23.988282 24-24 .941407-.003907 1.882813.054687 2.816407.167968 2.234374.289063 4.4375-.699218 5.710937-2.554687 1.273437-1.851563 1.402344-4.265625.335937-6.242188-.472656-.875-.886718-1.777343-1.242187-2.703125 1.449219.214844 2.914063.324219 4.378906.324219 3.3125 0 6-2.6875 6-6s-2.6875-6-6-6c-7.71875-.003906-14.574219-4.925781-17.042969-12.238281-2.472656-7.3125-.003906-15.386719 6.128907-20.070313 6.136719-4.683593 14.574219-4.933593 20.976562-.621093 1.777344 1.226562 4.074219 1.410156 6.019531.46875 1.945313-.9375 3.238282-2.847657 3.382813-5.003907.144531-2.152343-.882813-4.21875-2.683594-5.410156-1.117187-.746094-2.277343-1.417969-3.480469-2.007813 3.035157-6.546874 10.550782-9.71875 17.359376-7.324218 2.398437.855468 5.074218.101562 6.675781-1.878906 4.96875-6.148438 12.648437-9.457032 20.53125-8.835938 7.882812.617188 14.957031 5.078125 18.90625 11.929688 1.085937 1.855468 3.074219 3 5.226562 3 4.058594-.003907 8.050781 1.027343 11.601563 2.992187 1.605468.894531 3.535156 1.003906 5.230468.292969 1.699219-.707032 2.976563-2.15625 3.46875-3.929688 1.113282-4.023437 2.921876-7.816406 5.34375-11.21875 1.492188-2.09375 1.480469-4.90625-.023437-6.992187-1.714844-2.371094-2.632813-5.222657-2.621094-8.144531.003907-6.910157 5.046875-12.785157 11.875-13.832032 6.828125-1.050781 13.402344 3.039063 15.480469 9.628906.769531 2.453126 3.011719 4.144532 5.582031 4.207032 19.0625.515625 34.417969 15.804687 35.011719 34.867187s-13.78125 35.28125-32.777344 36.976563c-3.796875-9.71875-12.945312-16.304688-23.371094-16.820313-10.421874-.511719-20.175781 5.140625-24.914062 14.4375-11.3125 2.371094-18.992188 12.929688-17.761719 24.425781 1.234375 11.496094 10.976563 20.1875 22.539063 20.109376 2.992187 5.804687 8.226562 10.140624 14.488281 12h-32.933594c.652344-7.050782-1.554687-14.0625-6.117187-19.472657 2.210937-11.316406-4.488282-22.476562-15.519532-25.839843-11.03125-3.367188-22.820312 2.148437-27.300781 12.773437l-.0625.148437c-7.53125.582032-14.347656 4.671876-18.402343 11.042969-4.054688 6.371094-4.875 14.277344-2.214844 21.347657h-44.257813c-.222656-1.324219-.339843-2.660157-.34375-4zm-5.253906 16h52.511719l6.121094 113h-22.222657c-3.355469-.015626-6.113281 2.644531-6.210937 6v70c.097656 3.351562 2.855468 6.015624 6.210937 6h28.132813l7.21875 103h-34.269532zm208.90625 298h-34.273437l7.21875-103h28.078124c3.367188.019531 6.140626-2.636719 6.269532-6v-70c-.128906-3.367188-2.902344-6.023438-6.269532-6h-22.167968l6.121094-113h39.367187.046875 13.101562zm0 0" fill="url(#linear0)"/><path d="m84.496094 311.269531c0-5.898437-3.753906-9.277343-9.789063-9.277343h-7.449219c-.734374-.050782-1.457031.214843-1.980468.730468-.527344.511719-.8125 1.222656-.78125 1.960938v22.890625c0 1.609375 1.257812 2.730469 3.5 2.730469 2.242187 0 3.5-1.121094 3.5-2.730469v-6.582031h2.851562c6.261719 0 10.148438-3.601563 10.148438-9.542969zm-8 .613281c0 2.300782-1.101563 2.109376-2.148438 2.109376h-2.851562v-5h2.851562c1.042969 0 2.148438.191406 2.148438 2.5zm0 0" fill="url(#linear1)"/><path d="m94.476562 301.992188c-6.238281 0-9.980468 3.460937-9.980468 9.5v9.539062c0 6.03125 3.742187 9.492188 9.980468 9.492188 6.261719 0 10.019532-3.460938 10.019532-9.492188v-9.539062c0-6.039063-3.757813-9.5-10.019532-9.5zm2.019532 19.03125c0 2.292968-1.410156 2.601562-2.519532 2.601562-1.089843 0-2.480468-.308594-2.480468-2.601562v-9.53125c0-2.292969 1.390625-2.601563 2.480468-2.601563 1.109376 0 2.519532.308594 2.519532 2.601563zm0 0" fill="url(#linear2)"/><path d="m125.496094 311.269531c0-5.898437-3.285156-9.277343-9.316406-9.277343h-7.453126c-1.628906-.125-3.058593 1.066406-3.230468 2.691406v22.890625c0 1.609375 1.757812 2.730469 4 2.730469 2.242187 0 4-1.121094 4-2.730469v-6.582031h2.320312c6.265625 0 9.679688-3.601563 9.679688-9.542969zm-7 .613281c0 2.300782-1.636719 2.109376-2.679688 2.109376h-2.320312v-5h2.320312c1.042969 0 2.679688.191406 2.679688 2.5zm0 0" fill="url(#linear3)"/><path d="m135.710938 308.890625c1.957031 0 2.148437 1.078125 2.195312 2.292969.054688.984375.617188 2.636718 3.800781 2.636718 1.769531 0 3.804688-.414062 3.804688-3.664062 0-4.882812-4.199219-8.160156-10.207031-8.160156-6.125 0-9.808594 3.460937-9.808594 9.5v9.539062c0 6.03125 3.683594 9.492188 9.808594 9.492188 6 0 10.117187-3.421875 10.117187-8.523438 0-3.226562-1.898437-3.664062-3.796875-3.664062-3.097656 0-3.667969 1.636718-3.75 2.617187-.128906 1.664063-.300781 2.675781-2.136719 2.675781-1.125 0-2.242187-.308593-2.242187-2.597656v-9.542968c0-2.296876 1.109375-2.601563 2.214844-2.601563zm0 0" fill="url(#linear4)"/><path d="m155.976562 301.992188c-6.238281 0-9.480468 3.460937-9.480468 9.5v9.539062c0 6.03125 3.242187 9.492188 9.480468 9.492188 6.261719 0 9.519532-3.460938 9.519532-9.492188v-9.539062c0-6.039063-3.257813-9.5-9.519532-9.5zm2.519532 19.03125c0 2.292968-1.410156 2.601562-2.519532 2.601562-1.089843 0-2.480468-.308594-2.480468-2.601562v-9.53125c0-2.292969 1.390625-2.601563 2.480468-2.601563 1.109376 0 2.519532.308594 2.519532 2.601563zm0 0" fill="url(#linear5)"/><path d="m183.414062 318.449219c2.5625-1.429688 3.960938-4.140625 3.960938-7.753907 0-3.972656-1.707031-8.703124-9.855469-8.703124h-7.449219c-.703124-.003907-1.382812.28125-1.867187.789062-.488281.507812-.746094 1.195312-.707031 1.902344v22.890625c0 1.609375 1.257812 2.730469 3.5 2.730469 2.242187 0 3.5-1.121094 3.5-2.730469v-7.582031h1.226562l4.65625 8.992187c.519532.992187 1.566406 1.597656 2.683594 1.558594 2.246094 0 4.53125-1.988281 4.53125-3.925781.007812-.402344-.097656-.796876-.304688-1.140626zm-5.894531-4.457031h-3.023437v-5h3.023437c1.453125 0 2.242188.523437 2.242188 2.5 0 1.972656-.789063 2.5-2.242188 2.5zm0 0" fill="url(#linear6)"/><path d="m204.996094 301.992188c-2.277344 0-3.5 1.082031-3.5 2.691406v8.175781l-4.121094-7.523437c-1.488281-2.863282-2.582031-3.34375-5.046875-3.34375-2.277344 0-3.832031 1.097656-3.832031 2.726562v22.855469c0 1.609375 1.257812 2.730469 3.5 2.730469 2.242187 0 3.5-1.121094 3.5-2.730469v-8.339844l5.207031 9.039063c.820313 1.402343 2.382813 2.195312 4 2.03125 2.238281 0 3.796875-1.121094 3.796875-2.730469v-22.890625c-.003906-1.609375-1.226562-2.691406-3.503906-2.691406zm0 0" fill="url(#linear7)"/></svg>