<svg height="432pt" viewBox="0 -2 432.7394 432" width="432pt" xmlns="http://www.w3.org/2000/svg" xmlns:xlink="http://www.w3.org/1999/xlink"><linearGradient id="a"><stop offset=".322" stop-color="#a163f5"/><stop offset=".466" stop-color="#b074ee"/><stop offset=".752" stop-color="#d8a1dd"/><stop offset=".898" stop-color="#efbad3"/></linearGradient><linearGradient id="b" gradientUnits="userSpaceOnUse" x1="216.370132" x2="216.370132" xlink:href="#a" y1="442.155115" y2="-22.930885"/><linearGradient id="c" gradientUnits="userSpaceOnUse" x1="67.288132" x2="67.288132" xlink:href="#a" y1="442.155115" y2="-22.930885"/><linearGradient id="d" gradientUnits="userSpaceOnUse" x1="195.730132" x2="195.730132" xlink:href="#a" y1="442.155115" y2="-22.930885"/><linearGradient id="e" gradientUnits="userSpaceOnUse" x1="275.446132" x2="275.446132" xlink:href="#a" y1="442.155115" y2="-22.930885"/><path d="m382.433594 249.988281-1.207032.652344c-9.429687-10.648437-25.097656-14.625-37.121093-8.53125-.050781.027344-.101563.054687-.15625.082031l-4.375 2.359375c-13.210938-10.570312-31.558594-11.9375-46.191407-3.441406l-27.742187 15.289063h-37c-7.890625-.082032-15.660156-1.929688-22.742187-5.414063l-5.136719-2.585937c-30.300781-14.765626-66.324219-11.265626-93.214844 9.050781-.152344.117187-.300781.214843-.445313.339843l-12.40625 11.035157c-4.179687 3.710937-9.0625 6.546875-14.359374 8.332031l-6.636719-21.785156c-.898438-2.953125-3.617188-4.972656-6.699219-4.976563h-60c-2.007812.007813-3.914062.871094-5.242188 2.375-1.328124 1.503907-1.949218 3.503907-1.7070308 5.496094l19.9999998 163.988281c.429688 3.511719 3.414063 6.152344 6.953125 6.144532h90c2.214844.007812 4.304688-1.039063 5.628906-2.816407 1.320313-1.78125 1.71875-4.082031 1.070313-6.203125l-11.515625-37.761718 35.878906-22.679688c4.605469-2.53125 10-3.226562 15.097656-1.9375.144532.039062.292969.070312.4375.101562l74.910157 13.792969c20.65625 3.695313 41.953125.691407 60.777343-8.582031.296876-.144531.582032-.3125.855469-.5l129.554688-88.953125c3.054687-2.097656 3.949219-6.210937 2.035156-9.382813-10.175781-16.960937-31.90625-22.90625-49.300781-13.488281zm-31.929688 4.574219c5.679688-2.832031 12.703125-.925781 17.742188 3.078125l-47.320313 25.53125-1.464843.773437c-1.367188-3.46875-3.171876-6.75-5.367188-9.765624zm-50.351562-1.398438.164062-.09375c7.730469-4.46875 17.167969-4.824218 25.210938-.957031l-21.898438 11.800781c-3.742187-2.621093-7.875-4.640624-12.242187-5.988281zm-266.949219 161.234376-18.292969-150h46.910156l45.730469 150zm259.433594-64.417969c-16.019531 7.773437-34.085938 10.273437-51.613281 7.136719l-74.679688-13.75c-8.554688-2.101563-17.585938-.871094-25.269531 3.441406-.109375.058594-.21875.125-.324219.191406l-32.800781 20.734375-23.527344-77.179687c7.230469-2.382813 13.894531-6.222657 19.582031-11.285157l12.183594-10.847656c22.683594-17.023437 52.980469-19.925781 78.476562-7.519531l5.140626 2.6875c8.980468 4.398437 18.835937 6.726562 28.835937 6.808594h49.828125c13.71875-.070313 25.722656 9.195312 29.136719 22.480468l-34.273438-1.648437c-13.214843-.613281-26.457031-.019531-39.566406 1.777343-3.816406.527344-6.484375 4.054688-5.953125 7.875.53125 3.816407 4.054688 6.484376 7.875 5.953126 12.257812-1.695313 24.648438-2.269532 37.011719-1.714844l42.5 1.917968c.105469.007813.210937.007813.316406.007813 3.867187 0 7-3.136719 7-7 0-.625-.023437-1.246094-.046875-1.863281l5.039062-2.65625 61.570313-33.21875c8.621094-4.667969 19.253906-3.355469 26.480469 3.269531zm0 0" fill="url(#b)"/><path d="m48.289062 392.734375c0 10.492187 8.503907 19 19 19 10.492188 0 19-8.507813 19-19 0-10.496094-8.507812-19-19-19-10.488281.011719-18.988281 8.511719-19 19zm19-5c2.761719 0 5 2.238281 5 5s-2.238281 5-5 5c-2.761718 0-5-2.238281-5-5 .003907-2.761719 2.238282-4.996094 5-5zm0 0" fill="url(#c)"/><path d="m171.371094 117.398438h.359375l-5.316407 19.039062c-.105468.632812-.121093 1.277344-.042968 1.914062v56.445313c0 12.851563 9.988281 23.601563 22.835937 23.601563h13.046875c12.847656 0 23.117188-10.753907 23.117188-23.601563v-56.445313c.03125-.644531-.03125-1.289062-.1875-1.914062l-5.453125-19.039062h.359375c3.867187 0 7-3.136719 7-7 0-3.867188-3.132813-7-7-7h-17.71875v-95.042969c0-3.867188-3.136719-7-7-7-3.867188 0-7 3.132812-7 7v95.042969h-17c-3.867188 0-7 3.132812-7 7 0 3.863281 3.132812 7 7 7zm40 21.949218v55.449219c0 5.132813-3.988282 9.601563-9.117188 9.601563h-13.046875c-5.128906 0-8.835937-4.472657-8.835937-9.601563v-55.449219l5.9375-21.949218h18.839844zm0 0" fill="url(#d)"/><path d="m252.371094 96.023438v99.027343c0 12.703125 10.296875 23 23 23s23-10.296875 23-23v-99.027343c18.203125-8.878907 29.792968-27.320313 29.898437-47.574219.085938-20.054688-11.253906-38.410157-29.226562-47.3125-2.09375-1.0859378-4.601563-.96875-6.582031.308593-2.007813 1.300782-3.179688 3.5625-3.089844 5.953126v22.546874l-13.433594 8.8125-13.777344-9.570312.023438-21.789062c-.003906-2.433594-1.261719-4.691407-3.332032-5.972657-2.066406-1.28125-4.644531-1.4062498-6.828124-.328125-18.070313 8.949219-29.476563 27.402344-29.40625 47.570313.074218 20.167969 11.617187 38.535156 29.753906 47.355469zm-4.285156-75.132813-.039063 11.910156c-.007813 2.292969 1.109375 4.445313 2.988281 5.757813l20.59375 14.410156c2.359375 1.648438 5.492188 1.6875 7.890625.089844l20.527344-13.539063c2-1.273437 3.242187-3.453125 3.324219-5.824219v-12.78125c9.28125 9.433594 13.144531 22.929688 10.265625 35.847657-2.878907 12.917969-12.109375 23.496093-24.515625 28.097656-2.78125 1-4.667969 3.601563-4.75 6.558594v103.632812c0 4.96875-4.03125 9-9 9-4.972656 0-9-4.03125-9-9v-103.632812c.019531-2.914063-1.777344-5.53125-4.5-6.558594-12.394532-4.652344-21.570313-15.285156-24.359375-28.222656-2.785157-12.941407 1.199219-26.40625 10.578125-35.746094zm0 0" fill="url(#e)"/></svg>