<svg id="Layer_1" height="512" viewBox="0 0 512 512" width="512" xmlns="http://www.w3.org/2000/svg" xmlns:xlink="http://www.w3.org/1999/xlink" data-name="Layer 1"><linearGradient id="linear-gradient" gradientUnits="userSpaceOnUse" x1="150" x2="150" y1="462" y2="94.835"><stop offset=".322" stop-color="#a163f5"/><stop offset=".466" stop-color="#b074ee"/><stop offset=".752" stop-color="#d8a1dd"/><stop offset=".898" stop-color="#efbad3"/></linearGradient><linearGradient id="linear-gradient-2" x1="83.112" x2="83.112" xlink:href="#linear-gradient" y1="462" y2="94.835"/><linearGradient id="linear-gradient-3" x1="138.219" x2="138.219" xlink:href="#linear-gradient" y1="462" y2="94.835"/><linearGradient id="linear-gradient-4" x1="256.004" x2="256.004" xlink:href="#linear-gradient" y1="462" y2="94.835"/><path d="m188.962 240h-20.962v-22.8a6.123 6.123 0 0 0 -5.94-6.2h-22.76a6.434 6.434 0 0 0 -6.3 6.2v22.8h-21.639a6.465 6.465 0 0 0 -6.361 6.17v21.73a6.405 6.405 0 0 0 6.361 6.1h21.639v20.8a6.434 6.434 0 0 0 6.3 6.2h22.76a6.123 6.123 0 0 0 5.94-6.2v-20.8h20.962a6.12 6.12 0 0 0 6.038-6.1v-21.73a6.181 6.181 0 0 0 -6.038-6.17zm-5.962 22h-20.94a5.967 5.967 0 0 0 -6.06 5.9v21.1h-11v-21.1a5.667 5.667 0 0 0 -5.7-5.9h-22.3v-10h22.3a5.61 5.61 0 0 0 5.7-5.83v-23.17h11v23.17a5.909 5.909 0 0 0 6.06 5.83h20.94z" fill="url(#linear-gradient)"/><path d="m111.6 85.4c-33.289 11.271-56.91 41.649-64.8 83.346a6 6 0 0 0 4.78 7.011 6.067 6.067 0 0 0 1.123.1 6 6 0 0 0 5.888-4.885c7.062-37.32 27.787-64.367 56.86-74.207a6 6 0 1 0 -3.851-11.365z" fill="url(#linear-gradient-2)"/><path d="m141.358 80.627c-2.236 0-4.485.076-6.684.225a6 6 0 0 0 .4 11.986c.136 0 .273 0 .411-.013 1.931-.131 3.907-.2 5.873-.2a6 6 0 0 0 0-12z" fill="url(#linear-gradient-3)"/><path d="m486 282h-33l-4.849-9c13.885-36.17 17.819-73.561 11.007-108.736l-.009-.044c-13.023-64.7-59.6-106.506-118.664-106.506-31.546 0-65.781 12.4-99.242 35.912-33.933-24.551-67.519-36.994-99.882-36.994-59.392 0-105.764 42.258-118.137 107.644-18.235 95.243 39.717 221.714 210.308 289.573a20.075 20.075 0 0 0 7.673 1.516 19.842 19.842 0 0 0 7.638-1.515c78.37-31.826 139.135-78.444 175.727-134.813a252.834 252.834 0 0 0 17.656-31.99l1.916 3.56a6.241 6.241 0 0 0 5.278 3.393h36.58a6 6 0 0 0 0-12zm-45.51-23.23-17.811-33.082a6.122 6.122 0 0 0 -5.155-3.268 5.936 5.936 0 0 0 -5.279 2.87l-44.219 74.317-42.806-102.807a5.962 5.962 0 0 0 -10.721-.646l-31.947 54.846h-54.506a77.978 77.978 0 1 0 -.127 12h58.081a6.077 6.077 0 0 0 5.182-3.059l27.6-47.358 42.757 102.651a5.987 5.987 0 0 0 5.114 3.668c.142.011.285.01.427.01a6 6 0 0 0 5.155-2.935l44.918-75.526 17.841 33.155a237.636 237.636 0 0 1 -20.489 38.9c-35.248 54.3-94.094 99.331-170.233 130.251a8.04 8.04 0 0 1 -6.166 0l-.1-.039c-164.244-65.326-220.306-185.786-202.996-276.203 5.582-29.5 18.544-54.265 37.482-71.606 18.778-17.194 42.591-26.282 68.866-26.282 30.842 0 63.221 12.519 96.238 37.21a6 6 0 0 0 7.123.047c32.53-23.666 65.644-36.175 95.763-36.175 26.207 0 50.052 9.05 68.956 26.17 18.966 17.175 32.085 41.615 37.94 70.682 5.759 29.755 3.281 61.28-6.888 92.209zm-224.254-2.77a66.075 66.075 0 1 1 -66.074-66.053 66.139 66.139 0 0 1 66.074 66.053z" fill="url(#linear-gradient-4)"/></svg>